<svg width="37" height="37" viewBox="0 0 37 37" fill="none" xmlns="http://www.w3.org/2000/svg">
<path d="M26.2083 3.08334H10.7917C6.53448 3.08334 3.08334 6.53448 3.08334 10.7917V26.2083C3.08334 30.4655 6.53448 33.9167 10.7917 33.9167H26.2083C30.4655 33.9167 33.9167 30.4655 33.9167 26.2083V10.7917C33.9167 6.53448 30.4655 3.08334 26.2083 3.08334Z" stroke="black" stroke-width="2" stroke-linecap="round" stroke-linejoin="round"/>
<path d="M24.6666 17.5288C24.8569 18.8118 24.6377 20.1222 24.0403 21.2735C23.4429 22.4248 22.4977 23.3584 21.3391 23.9416C20.1805 24.5247 18.8676 24.7277 17.587 24.5217C16.3064 24.3156 15.1233 23.711 14.2062 22.7938C13.289 21.8766 12.6844 20.6936 12.4783 19.413C12.2723 18.1324 12.4752 16.8194 13.0584 15.6608C13.6415 14.5022 14.5752 13.557 15.7265 12.9596C16.8778 12.3622 18.1882 12.1431 19.4712 12.3333C20.78 12.5274 21.9916 13.1373 22.9272 14.0728C23.8627 15.0084 24.4726 16.22 24.6666 17.5288Z" stroke="black" stroke-width="2" stroke-linecap="round" stroke-linejoin="round"/>
<path d="M26.9792 10.0208H26.9946" stroke="black" stroke-width="2" stroke-linecap="round" stroke-linejoin="round"/>
</svg>
