<svg width="376" height="1102" viewBox="0 0 376 1102" fill="none" xmlns="http://www.w3.org/2000/svg">
<circle cx="172.5" cy="91.5" r="51.5" fill="#C68942"/>
<circle cx="172.5" cy="175.5" r="51.5" fill="#B73208"/>
<circle cx="172.5" cy="242.5" r="51.5" fill="#C68942"/>
<circle cx="172.5" cy="326.5" r="51.5" fill="#B73208"/>
<circle cx="174.5" cy="393.5" r="51.5" fill="#C68942"/>
<circle cx="174.5" cy="477.5" r="51.5" fill="#B73208"/>
<circle cx="174.5" cy="544.5" r="51.5" fill="#C68942"/>
<circle cx="174.5" cy="628.5" r="51.5" fill="#5F6172"/>
<circle cx="174.5" cy="704.5" r="51.5" fill="#C68942"/>
<circle cx="174.5" cy="788.5" r="51.5" fill="#5F6172"/>
<circle cx="174.5" cy="628.5" r="51.5" fill="#B73208"/>
<circle cx="174.5" cy="704.5" r="51.5" fill="#C68942"/>
<circle cx="174.5" cy="864.5" r="51.5" fill="#C68942"/>
<circle cx="174.5" cy="937.5" r="51.5" fill="#B73208"/>
<circle cx="174.5" cy="788.5" r="51.5" fill="#B73208"/>
<path d="M157.378 90.006V87.78H161.256V98H158.764V90.006H157.378ZM165.47 95.004C165.61 95.7413 166.039 96.11 166.758 96.11C167.252 96.11 167.602 95.8907 167.808 95.452C168.013 95.0133 168.116 94.2993 168.116 93.31C167.91 93.5993 167.63 93.8233 167.276 93.982C166.921 94.1407 166.524 94.22 166.086 94.22C165.488 94.22 164.956 94.0987 164.49 93.856C164.023 93.604 163.654 93.2353 163.384 92.75C163.122 92.2553 162.992 91.658 162.992 90.958C162.992 90.2673 163.132 89.6653 163.412 89.152C163.701 88.6387 164.107 88.242 164.63 87.962C165.162 87.682 165.787 87.542 166.506 87.542C167.887 87.542 168.853 87.9713 169.404 88.83C169.954 89.6887 170.23 90.9533 170.23 92.624C170.23 93.8373 170.118 94.8407 169.894 95.634C169.679 96.418 169.31 97.0153 168.788 97.426C168.274 97.8367 167.57 98.042 166.674 98.042C165.964 98.042 165.358 97.902 164.854 97.622C164.359 97.342 163.976 96.9733 163.706 96.516C163.444 96.0587 163.295 95.5547 163.258 95.004H165.47ZM166.632 92.33C167.024 92.33 167.336 92.2133 167.57 91.98C167.803 91.7373 167.92 91.4107 167.92 91C167.92 90.552 167.798 90.2067 167.556 89.964C167.313 89.7213 166.986 89.6 166.576 89.6C166.165 89.6 165.838 89.726 165.596 89.978C165.362 90.2207 165.246 90.5567 165.246 90.986C165.246 91.3873 165.362 91.714 165.596 91.966C165.838 92.2087 166.184 92.33 166.632 92.33ZM173.187 92.512C172.31 92.0453 171.871 91.3127 171.871 90.314C171.871 89.81 172.002 89.3527 172.263 88.942C172.524 88.522 172.921 88.1907 173.453 87.948C173.985 87.696 174.638 87.57 175.413 87.57C176.188 87.57 176.836 87.696 177.359 87.948C177.891 88.1907 178.288 88.522 178.549 88.942C178.81 89.3527 178.941 89.81 178.941 90.314C178.941 90.818 178.82 91.2567 178.577 91.63C178.344 92.0033 178.026 92.2973 177.625 92.512C178.129 92.7547 178.516 93.0907 178.787 93.52C179.058 93.94 179.193 94.4347 179.193 95.004C179.193 95.6667 179.025 96.2407 178.689 96.726C178.353 97.202 177.896 97.566 177.317 97.818C176.748 98.07 176.113 98.196 175.413 98.196C174.713 98.196 174.074 98.07 173.495 97.818C172.926 97.566 172.473 97.202 172.137 96.726C171.801 96.2407 171.633 95.6667 171.633 95.004C171.633 94.4253 171.768 93.926 172.039 93.506C172.31 93.0767 172.692 92.7453 173.187 92.512ZM176.617 90.678C176.617 90.2953 176.505 90.0013 176.281 89.796C176.066 89.5813 175.777 89.474 175.413 89.474C175.049 89.474 174.755 89.5813 174.531 89.796C174.316 90.0107 174.209 90.3093 174.209 90.692C174.209 91.056 174.321 91.3453 174.545 91.56C174.769 91.7653 175.058 91.868 175.413 91.868C175.768 91.868 176.057 91.7607 176.281 91.546C176.505 91.3313 176.617 91.042 176.617 90.678ZM175.413 93.548C174.974 93.548 174.62 93.6693 174.349 93.912C174.078 94.1453 173.943 94.472 173.943 94.892C173.943 95.284 174.074 95.606 174.335 95.858C174.606 96.11 174.965 96.236 175.413 96.236C175.861 96.236 176.211 96.11 176.463 95.858C176.724 95.606 176.855 95.284 176.855 94.892C176.855 94.4813 176.72 94.1547 176.449 93.912C176.188 93.6693 175.842 93.548 175.413 93.548ZM185.639 90.538C185.564 90.1927 185.434 89.936 185.247 89.768C185.06 89.5907 184.794 89.502 184.449 89.502C183.917 89.502 183.534 89.7353 183.301 90.202C183.068 90.6593 182.946 91.3873 182.937 92.386C183.142 92.0593 183.436 91.8027 183.819 91.616C184.211 91.4293 184.64 91.336 185.107 91.336C186.022 91.336 186.754 91.6253 187.305 92.204C187.865 92.7827 188.145 93.59 188.145 94.626C188.145 95.3073 188.005 95.9047 187.725 96.418C187.454 96.9313 187.053 97.3327 186.521 97.622C185.998 97.9113 185.378 98.056 184.659 98.056C183.222 98.056 182.223 97.608 181.663 96.712C181.103 95.8067 180.823 94.5093 180.823 92.82C180.823 91.0467 181.117 89.7307 181.705 88.872C182.302 88.004 183.254 87.57 184.561 87.57C185.261 87.57 185.849 87.71 186.325 87.99C186.81 88.2607 187.174 88.62 187.417 89.068C187.669 89.516 187.818 90.006 187.865 90.538H185.639ZM184.533 93.226C184.132 93.226 183.796 93.3473 183.525 93.59C183.264 93.8233 183.133 94.1593 183.133 94.598C183.133 95.046 183.254 95.396 183.497 95.648C183.749 95.9 184.104 96.026 184.561 96.026C184.972 96.026 185.294 95.9047 185.527 95.662C185.77 95.41 185.891 95.0693 185.891 94.64C185.891 94.2013 185.774 93.856 185.541 93.604C185.308 93.352 184.972 93.226 184.533 93.226Z" fill="black"/>
<path d="M157.378 171.006V168.78H161.256V179H158.764V171.006H157.378ZM165.47 176.004C165.61 176.741 166.039 177.11 166.758 177.11C167.252 177.11 167.602 176.891 167.808 176.452C168.013 176.013 168.116 175.299 168.116 174.31C167.91 174.599 167.63 174.823 167.276 174.982C166.921 175.141 166.524 175.22 166.086 175.22C165.488 175.22 164.956 175.099 164.49 174.856C164.023 174.604 163.654 174.235 163.384 173.75C163.122 173.255 162.992 172.658 162.992 171.958C162.992 171.267 163.132 170.665 163.412 170.152C163.701 169.639 164.107 169.242 164.63 168.962C165.162 168.682 165.787 168.542 166.506 168.542C167.887 168.542 168.853 168.971 169.404 169.83C169.954 170.689 170.23 171.953 170.23 173.624C170.23 174.837 170.118 175.841 169.894 176.634C169.679 177.418 169.31 178.015 168.788 178.426C168.274 178.837 167.57 179.042 166.674 179.042C165.964 179.042 165.358 178.902 164.854 178.622C164.359 178.342 163.976 177.973 163.706 177.516C163.444 177.059 163.295 176.555 163.258 176.004H165.47ZM166.632 173.33C167.024 173.33 167.336 173.213 167.57 172.98C167.803 172.737 167.92 172.411 167.92 172C167.92 171.552 167.798 171.207 167.556 170.964C167.313 170.721 166.986 170.6 166.576 170.6C166.165 170.6 165.838 170.726 165.596 170.978C165.362 171.221 165.246 171.557 165.246 171.986C165.246 172.387 165.362 172.714 165.596 172.966C165.838 173.209 166.184 173.33 166.632 173.33ZM174.083 176.004C174.223 176.741 174.652 177.11 175.371 177.11C175.866 177.11 176.216 176.891 176.421 176.452C176.626 176.013 176.729 175.299 176.729 174.31C176.524 174.599 176.244 174.823 175.889 174.982C175.534 175.141 175.138 175.22 174.699 175.22C174.102 175.22 173.57 175.099 173.103 174.856C172.636 174.604 172.268 174.235 171.997 173.75C171.736 173.255 171.605 172.658 171.605 171.958C171.605 171.267 171.745 170.665 172.025 170.152C172.314 169.639 172.72 169.242 173.243 168.962C173.775 168.682 174.4 168.542 175.119 168.542C176.5 168.542 177.466 168.971 178.017 169.83C178.568 170.689 178.843 171.953 178.843 173.624C178.843 174.837 178.731 175.841 178.507 176.634C178.292 177.418 177.924 178.015 177.401 178.426C176.888 178.837 176.183 179.042 175.287 179.042C174.578 179.042 173.971 178.902 173.467 178.622C172.972 178.342 172.59 177.973 172.319 177.516C172.058 177.059 171.908 176.555 171.871 176.004H174.083ZM175.245 173.33C175.637 173.33 175.95 173.213 176.183 172.98C176.416 172.737 176.533 172.411 176.533 172C176.533 171.552 176.412 171.207 176.169 170.964C175.926 170.721 175.6 170.6 175.189 170.6C174.778 170.6 174.452 170.726 174.209 170.978C173.976 171.221 173.859 171.557 173.859 171.986C173.859 172.387 173.976 172.714 174.209 172.966C174.452 173.209 174.797 173.33 175.245 173.33ZM185.174 171.538C185.1 171.193 184.969 170.936 184.782 170.768C184.596 170.591 184.33 170.502 183.984 170.502C183.452 170.502 183.07 170.735 182.836 171.202C182.603 171.659 182.482 172.387 182.472 173.386C182.678 173.059 182.972 172.803 183.354 172.616C183.746 172.429 184.176 172.336 184.642 172.336C185.557 172.336 186.29 172.625 186.84 173.204C187.4 173.783 187.68 174.59 187.68 175.626C187.68 176.307 187.54 176.905 187.26 177.418C186.99 177.931 186.588 178.333 186.056 178.622C185.534 178.911 184.913 179.056 184.194 179.056C182.757 179.056 181.758 178.608 181.198 177.712C180.638 176.807 180.358 175.509 180.358 173.82C180.358 172.047 180.652 170.731 181.24 169.872C181.838 169.004 182.79 168.57 184.096 168.57C184.796 168.57 185.384 168.71 185.86 168.99C186.346 169.261 186.71 169.62 186.952 170.068C187.204 170.516 187.354 171.006 187.4 171.538H185.174ZM184.068 174.226C183.667 174.226 183.331 174.347 183.06 174.59C182.799 174.823 182.668 175.159 182.668 175.598C182.668 176.046 182.79 176.396 183.032 176.648C183.284 176.9 183.639 177.026 184.096 177.026C184.507 177.026 184.829 176.905 185.062 176.662C185.305 176.41 185.426 176.069 185.426 175.64C185.426 175.201 185.31 174.856 185.076 174.604C184.843 174.352 184.507 174.226 184.068 174.226Z" fill="black"/>
<path d="M157.546 248.082C157.863 247.83 158.008 247.713 157.98 247.732C158.895 246.976 159.613 246.355 160.136 245.87C160.668 245.385 161.116 244.876 161.48 244.344C161.844 243.812 162.026 243.294 162.026 242.79C162.026 242.407 161.937 242.109 161.76 241.894C161.583 241.679 161.317 241.572 160.962 241.572C160.607 241.572 160.327 241.707 160.122 241.978C159.926 242.239 159.828 242.613 159.828 243.098H157.518C157.537 242.305 157.705 241.642 158.022 241.11C158.349 240.578 158.773 240.186 159.296 239.934C159.828 239.682 160.416 239.556 161.06 239.556C162.171 239.556 163.006 239.841 163.566 240.41C164.135 240.979 164.42 241.721 164.42 242.636C164.42 243.635 164.079 244.563 163.398 245.422C162.717 246.271 161.849 247.102 160.794 247.914H164.574V249.86H157.546V248.082ZM165.628 244.75C165.628 243.145 165.936 241.88 166.552 240.956C167.177 240.032 168.181 239.57 169.562 239.57C170.943 239.57 171.942 240.032 172.558 240.956C173.183 241.88 173.496 243.145 173.496 244.75C173.496 246.374 173.183 247.648 172.558 248.572C171.942 249.496 170.943 249.958 169.562 249.958C168.181 249.958 167.177 249.496 166.552 248.572C165.936 247.648 165.628 246.374 165.628 244.75ZM171.144 244.75C171.144 243.807 171.041 243.084 170.836 242.58C170.631 242.067 170.206 241.81 169.562 241.81C168.918 241.81 168.493 242.067 168.288 242.58C168.083 243.084 167.98 243.807 167.98 244.75C167.98 245.385 168.017 245.912 168.092 246.332C168.167 246.743 168.316 247.079 168.54 247.34C168.773 247.592 169.114 247.718 169.562 247.718C170.01 247.718 170.346 247.592 170.57 247.34C170.803 247.079 170.957 246.743 171.032 246.332C171.107 245.912 171.144 245.385 171.144 244.75ZM174.761 244.75C174.761 243.145 175.069 241.88 175.685 240.956C176.31 240.032 177.314 239.57 178.695 239.57C180.076 239.57 181.075 240.032 181.691 240.956C182.316 241.88 182.629 243.145 182.629 244.75C182.629 246.374 182.316 247.648 181.691 248.572C181.075 249.496 180.076 249.958 178.695 249.958C177.314 249.958 176.31 249.496 175.685 248.572C175.069 247.648 174.761 246.374 174.761 244.75ZM180.277 244.75C180.277 243.807 180.174 243.084 179.969 242.58C179.764 242.067 179.339 241.81 178.695 241.81C178.051 241.81 177.626 242.067 177.421 242.58C177.216 243.084 177.113 243.807 177.113 244.75C177.113 245.385 177.15 245.912 177.225 246.332C177.3 246.743 177.449 247.079 177.673 247.34C177.906 247.592 178.247 247.718 178.695 247.718C179.143 247.718 179.479 247.592 179.703 247.34C179.936 247.079 180.09 246.743 180.165 246.332C180.24 245.912 180.277 245.385 180.277 244.75ZM183.642 242.006V239.78H187.52V250H185.028V242.006H183.642Z" fill="black"/>
<path d="M157.546 312.082C157.863 311.83 158.008 311.713 157.98 311.732C158.895 310.976 159.613 310.355 160.136 309.87C160.668 309.385 161.116 308.876 161.48 308.344C161.844 307.812 162.026 307.294 162.026 306.79C162.026 306.407 161.937 306.109 161.76 305.894C161.583 305.679 161.317 305.572 160.962 305.572C160.607 305.572 160.327 305.707 160.122 305.978C159.926 306.239 159.828 306.613 159.828 307.098H157.518C157.537 306.305 157.705 305.642 158.022 305.11C158.349 304.578 158.773 304.186 159.296 303.934C159.828 303.682 160.416 303.556 161.06 303.556C162.171 303.556 163.006 303.841 163.566 304.41C164.135 304.979 164.42 305.721 164.42 306.636C164.42 307.635 164.079 308.563 163.398 309.422C162.717 310.271 161.849 311.102 160.794 311.914H164.574V313.86H157.546V312.082ZM165.628 308.75C165.628 307.145 165.936 305.88 166.552 304.956C167.177 304.032 168.181 303.57 169.562 303.57C170.943 303.57 171.942 304.032 172.558 304.956C173.183 305.88 173.496 307.145 173.496 308.75C173.496 310.374 173.183 311.648 172.558 312.572C171.942 313.496 170.943 313.958 169.562 313.958C168.181 313.958 167.177 313.496 166.552 312.572C165.936 311.648 165.628 310.374 165.628 308.75ZM171.144 308.75C171.144 307.807 171.041 307.084 170.836 306.58C170.631 306.067 170.206 305.81 169.562 305.81C168.918 305.81 168.493 306.067 168.288 306.58C168.083 307.084 167.98 307.807 167.98 308.75C167.98 309.385 168.017 309.912 168.092 310.332C168.167 310.743 168.316 311.079 168.54 311.34C168.773 311.592 169.114 311.718 169.562 311.718C170.01 311.718 170.346 311.592 170.57 311.34C170.803 311.079 170.957 310.743 171.032 310.332C171.107 309.912 171.144 309.385 171.144 308.75ZM174.761 308.75C174.761 307.145 175.069 305.88 175.685 304.956C176.31 304.032 177.314 303.57 178.695 303.57C180.076 303.57 181.075 304.032 181.691 304.956C182.316 305.88 182.629 307.145 182.629 308.75C182.629 310.374 182.316 311.648 181.691 312.572C181.075 313.496 180.076 313.958 178.695 313.958C177.314 313.958 176.31 313.496 175.685 312.572C175.069 311.648 174.761 310.374 174.761 308.75ZM180.277 308.75C180.277 307.807 180.174 307.084 179.969 306.58C179.764 306.067 179.339 305.81 178.695 305.81C178.051 305.81 177.626 306.067 177.421 306.58C177.216 307.084 177.113 307.807 177.113 308.75C177.113 309.385 177.15 309.912 177.225 310.332C177.3 310.743 177.449 311.079 177.673 311.34C177.906 311.592 178.247 311.718 178.695 311.718C179.143 311.718 179.479 311.592 179.703 311.34C179.936 311.079 180.09 310.743 180.165 310.332C180.24 309.912 180.277 309.385 180.277 308.75ZM183.978 306.664C184.015 305.665 184.342 304.895 184.958 304.354C185.574 303.813 186.409 303.542 187.464 303.542C188.164 303.542 188.761 303.663 189.256 303.906C189.76 304.149 190.138 304.48 190.39 304.9C190.651 305.32 190.782 305.791 190.782 306.314C190.782 306.93 190.628 307.434 190.32 307.826C190.012 308.209 189.652 308.47 189.242 308.61V308.666C189.774 308.843 190.194 309.137 190.502 309.548C190.81 309.959 190.964 310.486 190.964 311.13C190.964 311.709 190.828 312.222 190.558 312.67C190.296 313.109 189.909 313.454 189.396 313.706C188.892 313.958 188.29 314.084 187.59 314.084C186.47 314.084 185.574 313.809 184.902 313.258C184.239 312.707 183.889 311.877 183.852 310.766H186.176C186.185 311.177 186.302 311.503 186.526 311.746C186.75 311.979 187.076 312.096 187.506 312.096C187.87 312.096 188.15 311.993 188.346 311.788C188.551 311.573 188.654 311.293 188.654 310.948C188.654 310.5 188.509 310.178 188.22 309.982C187.94 309.777 187.487 309.674 186.862 309.674H186.414V307.728H186.862C187.338 307.728 187.72 307.649 188.01 307.49C188.308 307.322 188.458 307.028 188.458 306.608C188.458 306.272 188.364 306.011 188.178 305.824C187.991 305.637 187.734 305.544 187.408 305.544C187.053 305.544 186.787 305.651 186.61 305.866C186.442 306.081 186.344 306.347 186.316 306.664H183.978Z" fill="black"/>
<path d="M157.546 391.082C157.863 390.83 158.008 390.713 157.98 390.732C158.895 389.976 159.613 389.355 160.136 388.87C160.668 388.385 161.116 387.876 161.48 387.344C161.844 386.812 162.026 386.294 162.026 385.79C162.026 385.407 161.937 385.109 161.76 384.894C161.583 384.679 161.317 384.572 160.962 384.572C160.607 384.572 160.327 384.707 160.122 384.978C159.926 385.239 159.828 385.613 159.828 386.098H157.518C157.537 385.305 157.705 384.642 158.022 384.11C158.349 383.578 158.773 383.186 159.296 382.934C159.828 382.682 160.416 382.556 161.06 382.556C162.171 382.556 163.006 382.841 163.566 383.41C164.135 383.979 164.42 384.721 164.42 385.636C164.42 386.635 164.079 387.563 163.398 388.422C162.717 389.271 161.849 390.102 160.794 390.914H164.574V392.86H157.546V391.082ZM165.628 387.75C165.628 386.145 165.936 384.88 166.552 383.956C167.177 383.032 168.181 382.57 169.562 382.57C170.943 382.57 171.942 383.032 172.558 383.956C173.183 384.88 173.496 386.145 173.496 387.75C173.496 389.374 173.183 390.648 172.558 391.572C171.942 392.496 170.943 392.958 169.562 392.958C168.181 392.958 167.177 392.496 166.552 391.572C165.936 390.648 165.628 389.374 165.628 387.75ZM171.144 387.75C171.144 386.807 171.041 386.084 170.836 385.58C170.631 385.067 170.206 384.81 169.562 384.81C168.918 384.81 168.493 385.067 168.288 385.58C168.083 386.084 167.98 386.807 167.98 387.75C167.98 388.385 168.017 388.912 168.092 389.332C168.167 389.743 168.316 390.079 168.54 390.34C168.773 390.592 169.114 390.718 169.562 390.718C170.01 390.718 170.346 390.592 170.57 390.34C170.803 390.079 170.957 389.743 171.032 389.332C171.107 388.912 171.144 388.385 171.144 387.75ZM174.761 387.75C174.761 386.145 175.069 384.88 175.685 383.956C176.31 383.032 177.314 382.57 178.695 382.57C180.076 382.57 181.075 383.032 181.691 383.956C182.316 384.88 182.629 386.145 182.629 387.75C182.629 389.374 182.316 390.648 181.691 391.572C181.075 392.496 180.076 392.958 178.695 392.958C177.314 392.958 176.31 392.496 175.685 391.572C175.069 390.648 174.761 389.374 174.761 387.75ZM180.277 387.75C180.277 386.807 180.174 386.084 179.969 385.58C179.764 385.067 179.339 384.81 178.695 384.81C178.051 384.81 177.626 385.067 177.421 385.58C177.216 386.084 177.113 386.807 177.113 387.75C177.113 388.385 177.15 388.912 177.225 389.332C177.3 389.743 177.449 390.079 177.673 390.34C177.906 390.592 178.247 390.718 178.695 390.718C179.143 390.718 179.479 390.592 179.703 390.34C179.936 390.079 180.09 389.743 180.165 389.332C180.24 388.912 180.277 388.385 180.277 387.75ZM186.47 390.004C186.61 390.741 187.039 391.11 187.758 391.11C188.252 391.11 188.602 390.891 188.808 390.452C189.013 390.013 189.116 389.299 189.116 388.31C188.91 388.599 188.63 388.823 188.276 388.982C187.921 389.141 187.524 389.22 187.086 389.22C186.488 389.22 185.956 389.099 185.49 388.856C185.023 388.604 184.654 388.235 184.384 387.75C184.122 387.255 183.992 386.658 183.992 385.958C183.992 385.267 184.132 384.665 184.412 384.152C184.701 383.639 185.107 383.242 185.63 382.962C186.162 382.682 186.787 382.542 187.506 382.542C188.887 382.542 189.853 382.971 190.404 383.83C190.954 384.689 191.23 385.953 191.23 387.624C191.23 388.837 191.118 389.841 190.894 390.634C190.679 391.418 190.31 392.015 189.788 392.426C189.274 392.837 188.57 393.042 187.674 393.042C186.964 393.042 186.358 392.902 185.854 392.622C185.359 392.342 184.976 391.973 184.706 391.516C184.444 391.059 184.295 390.555 184.258 390.004H186.47ZM187.632 387.33C188.024 387.33 188.336 387.213 188.57 386.98C188.803 386.737 188.92 386.411 188.92 386C188.92 385.552 188.798 385.207 188.556 384.964C188.313 384.721 187.986 384.6 187.576 384.6C187.165 384.6 186.838 384.726 186.596 384.978C186.362 385.221 186.246 385.557 186.246 385.986C186.246 386.387 186.362 386.714 186.596 386.966C186.838 387.209 187.184 387.33 187.632 387.33Z" fill="black"/>
<path d="M157.546 463.082C157.863 462.83 158.008 462.713 157.98 462.732C158.895 461.976 159.613 461.355 160.136 460.87C160.668 460.385 161.116 459.876 161.48 459.344C161.844 458.812 162.026 458.294 162.026 457.79C162.026 457.407 161.937 457.109 161.76 456.894C161.583 456.679 161.317 456.572 160.962 456.572C160.607 456.572 160.327 456.707 160.122 456.978C159.926 457.239 159.828 457.613 159.828 458.098H157.518C157.537 457.305 157.705 456.642 158.022 456.11C158.349 455.578 158.773 455.186 159.296 454.934C159.828 454.682 160.416 454.556 161.06 454.556C162.171 454.556 163.006 454.841 163.566 455.41C164.135 455.979 164.42 456.721 164.42 457.636C164.42 458.635 164.079 459.563 163.398 460.422C162.717 461.271 161.849 462.102 160.794 462.914H164.574V464.86H157.546V463.082ZM165.628 459.75C165.628 458.145 165.936 456.88 166.552 455.956C167.177 455.032 168.181 454.57 169.562 454.57C170.943 454.57 171.942 455.032 172.558 455.956C173.183 456.88 173.496 458.145 173.496 459.75C173.496 461.374 173.183 462.648 172.558 463.572C171.942 464.496 170.943 464.958 169.562 464.958C168.181 464.958 167.177 464.496 166.552 463.572C165.936 462.648 165.628 461.374 165.628 459.75ZM171.144 459.75C171.144 458.807 171.041 458.084 170.836 457.58C170.631 457.067 170.206 456.81 169.562 456.81C168.918 456.81 168.493 457.067 168.288 457.58C168.083 458.084 167.98 458.807 167.98 459.75C167.98 460.385 168.017 460.912 168.092 461.332C168.167 461.743 168.316 462.079 168.54 462.34C168.773 462.592 169.114 462.718 169.562 462.718C170.01 462.718 170.346 462.592 170.57 462.34C170.803 462.079 170.957 461.743 171.032 461.332C171.107 460.912 171.144 460.385 171.144 459.75ZM174.509 457.006V454.78H178.387V465H175.895V457.006H174.509ZM180.081 463.18V461.248L184.505 454.92H187.179V461.108H188.327V463.18H187.179V465H184.785V463.18H180.081ZM184.953 457.552L182.601 461.108H184.953V457.552Z" fill="black"/>
<path d="M157.546 550.082C157.863 549.83 158.008 549.713 157.98 549.732C158.895 548.976 159.613 548.355 160.136 547.87C160.668 547.385 161.116 546.876 161.48 546.344C161.844 545.812 162.026 545.294 162.026 544.79C162.026 544.407 161.937 544.109 161.76 543.894C161.583 543.679 161.317 543.572 160.962 543.572C160.607 543.572 160.327 543.707 160.122 543.978C159.926 544.239 159.828 544.613 159.828 545.098H157.518C157.537 544.305 157.705 543.642 158.022 543.11C158.349 542.578 158.773 542.186 159.296 541.934C159.828 541.682 160.416 541.556 161.06 541.556C162.171 541.556 163.006 541.841 163.566 542.41C164.135 542.979 164.42 543.721 164.42 544.636C164.42 545.635 164.079 546.563 163.398 547.422C162.717 548.271 161.849 549.102 160.794 549.914H164.574V551.86H157.546V550.082ZM165.628 546.75C165.628 545.145 165.936 543.88 166.552 542.956C167.177 542.032 168.181 541.57 169.562 541.57C170.943 541.57 171.942 542.032 172.558 542.956C173.183 543.88 173.496 545.145 173.496 546.75C173.496 548.374 173.183 549.648 172.558 550.572C171.942 551.496 170.943 551.958 169.562 551.958C168.181 551.958 167.177 551.496 166.552 550.572C165.936 549.648 165.628 548.374 165.628 546.75ZM171.144 546.75C171.144 545.807 171.041 545.084 170.836 544.58C170.631 544.067 170.206 543.81 169.562 543.81C168.918 543.81 168.493 544.067 168.288 544.58C168.083 545.084 167.98 545.807 167.98 546.75C167.98 547.385 168.017 547.912 168.092 548.332C168.167 548.743 168.316 549.079 168.54 549.34C168.773 549.592 169.114 549.718 169.562 549.718C170.01 549.718 170.346 549.592 170.57 549.34C170.803 549.079 170.957 548.743 171.032 548.332C171.107 547.912 171.144 547.385 171.144 546.75ZM174.509 544.006V541.78H178.387V552H175.895V544.006H174.509ZM187.221 543.866H182.853V545.798C183.039 545.593 183.301 545.425 183.637 545.294C183.973 545.163 184.337 545.098 184.729 545.098C185.429 545.098 186.007 545.257 186.465 545.574C186.931 545.891 187.272 546.302 187.487 546.806C187.701 547.31 187.809 547.856 187.809 548.444C187.809 549.536 187.501 550.404 186.885 551.048C186.269 551.683 185.401 552 184.281 552C183.534 552 182.885 551.874 182.335 551.622C181.784 551.361 181.359 551.001 181.061 550.544C180.762 550.087 180.599 549.559 180.571 548.962H182.909C182.965 549.251 183.1 549.494 183.315 549.69C183.529 549.877 183.823 549.97 184.197 549.97C184.635 549.97 184.962 549.83 185.177 549.55C185.391 549.27 185.499 548.897 185.499 548.43C185.499 547.973 185.387 547.623 185.163 547.38C184.939 547.137 184.612 547.016 184.183 547.016C183.865 547.016 183.604 547.095 183.399 547.254C183.193 547.403 183.058 547.604 182.993 547.856H180.683V541.766H187.221V543.866Z" fill="black"/>
<path d="M157.546 625.082C157.863 624.83 158.008 624.713 157.98 624.732C158.895 623.976 159.613 623.355 160.136 622.87C160.668 622.385 161.116 621.876 161.48 621.344C161.844 620.812 162.026 620.294 162.026 619.79C162.026 619.407 161.937 619.109 161.76 618.894C161.583 618.679 161.317 618.572 160.962 618.572C160.607 618.572 160.327 618.707 160.122 618.978C159.926 619.239 159.828 619.613 159.828 620.098H157.518C157.537 619.305 157.705 618.642 158.022 618.11C158.349 617.578 158.773 617.186 159.296 616.934C159.828 616.682 160.416 616.556 161.06 616.556C162.171 616.556 163.006 616.841 163.566 617.41C164.135 617.979 164.42 618.721 164.42 619.636C164.42 620.635 164.079 621.563 163.398 622.422C162.717 623.271 161.849 624.102 160.794 624.914H164.574V626.86H157.546V625.082ZM165.628 621.75C165.628 620.145 165.936 618.88 166.552 617.956C167.177 617.032 168.181 616.57 169.562 616.57C170.943 616.57 171.942 617.032 172.558 617.956C173.183 618.88 173.496 620.145 173.496 621.75C173.496 623.374 173.183 624.648 172.558 625.572C171.942 626.496 170.943 626.958 169.562 626.958C168.181 626.958 167.177 626.496 166.552 625.572C165.936 624.648 165.628 623.374 165.628 621.75ZM171.144 621.75C171.144 620.807 171.041 620.084 170.836 619.58C170.631 619.067 170.206 618.81 169.562 618.81C168.918 618.81 168.493 619.067 168.288 619.58C168.083 620.084 167.98 620.807 167.98 621.75C167.98 622.385 168.017 622.912 168.092 623.332C168.167 623.743 168.316 624.079 168.54 624.34C168.773 624.592 169.114 624.718 169.562 624.718C170.01 624.718 170.346 624.592 170.57 624.34C170.803 624.079 170.957 623.743 171.032 623.332C171.107 622.912 171.144 622.385 171.144 621.75ZM174.509 619.006V616.78H178.387V627H175.895V619.006H174.509ZM186.549 618.572L183.035 627H180.585L184.141 618.838H179.787V616.794H186.549V618.572Z" fill="black"/>
<path d="M157.546 710.082C157.863 709.83 158.008 709.713 157.98 709.732C158.895 708.976 159.613 708.355 160.136 707.87C160.668 707.385 161.116 706.876 161.48 706.344C161.844 705.812 162.026 705.294 162.026 704.79C162.026 704.407 161.937 704.109 161.76 703.894C161.583 703.679 161.317 703.572 160.962 703.572C160.607 703.572 160.327 703.707 160.122 703.978C159.926 704.239 159.828 704.613 159.828 705.098H157.518C157.537 704.305 157.705 703.642 158.022 703.11C158.349 702.578 158.773 702.186 159.296 701.934C159.828 701.682 160.416 701.556 161.06 701.556C162.171 701.556 163.006 701.841 163.566 702.41C164.135 702.979 164.42 703.721 164.42 704.636C164.42 705.635 164.079 706.563 163.398 707.422C162.717 708.271 161.849 709.102 160.794 709.914H164.574V711.86H157.546V710.082ZM165.628 706.75C165.628 705.145 165.936 703.88 166.552 702.956C167.177 702.032 168.181 701.57 169.562 701.57C170.943 701.57 171.942 702.032 172.558 702.956C173.183 703.88 173.496 705.145 173.496 706.75C173.496 708.374 173.183 709.648 172.558 710.572C171.942 711.496 170.943 711.958 169.562 711.958C168.181 711.958 167.177 711.496 166.552 710.572C165.936 709.648 165.628 708.374 165.628 706.75ZM171.144 706.75C171.144 705.807 171.041 705.084 170.836 704.58C170.631 704.067 170.206 703.81 169.562 703.81C168.918 703.81 168.493 704.067 168.288 704.58C168.083 705.084 167.98 705.807 167.98 706.75C167.98 707.385 168.017 707.912 168.092 708.332C168.167 708.743 168.316 709.079 168.54 709.34C168.773 709.592 169.114 709.718 169.562 709.718C170.01 709.718 170.346 709.592 170.57 709.34C170.803 709.079 170.957 708.743 171.032 708.332C171.107 707.912 171.144 707.385 171.144 706.75ZM174.509 704.006V701.78H178.387V712H175.895V704.006H174.509ZM181.705 706.512C180.827 706.045 180.389 705.313 180.389 704.314C180.389 703.81 180.519 703.353 180.781 702.942C181.042 702.522 181.439 702.191 181.971 701.948C182.503 701.696 183.156 701.57 183.931 701.57C184.705 701.57 185.354 701.696 185.877 701.948C186.409 702.191 186.805 702.522 187.067 702.942C187.328 703.353 187.459 703.81 187.459 704.314C187.459 704.818 187.337 705.257 187.095 705.63C186.861 706.003 186.544 706.297 186.143 706.512C186.647 706.755 187.034 707.091 187.305 707.52C187.575 707.94 187.711 708.435 187.711 709.004C187.711 709.667 187.543 710.241 187.207 710.726C186.871 711.202 186.413 711.566 185.835 711.818C185.265 712.07 184.631 712.196 183.931 712.196C183.231 712.196 182.591 712.07 182.013 711.818C181.443 711.566 180.991 711.202 180.655 710.726C180.319 710.241 180.151 709.667 180.151 709.004C180.151 708.425 180.286 707.926 180.557 707.506C180.827 707.077 181.21 706.745 181.705 706.512ZM185.135 704.678C185.135 704.295 185.023 704.001 184.799 703.796C184.584 703.581 184.295 703.474 183.931 703.474C183.567 703.474 183.273 703.581 183.049 703.796C182.834 704.011 182.727 704.309 182.727 704.692C182.727 705.056 182.839 705.345 183.063 705.56C183.287 705.765 183.576 705.868 183.931 705.868C184.285 705.868 184.575 705.761 184.799 705.546C185.023 705.331 185.135 705.042 185.135 704.678ZM183.931 707.548C183.492 707.548 183.137 707.669 182.867 707.912C182.596 708.145 182.461 708.472 182.461 708.892C182.461 709.284 182.591 709.606 182.853 709.858C183.123 710.11 183.483 710.236 183.931 710.236C184.379 710.236 184.729 710.11 184.981 709.858C185.242 709.606 185.373 709.284 185.373 708.892C185.373 708.481 185.237 708.155 184.967 707.912C184.705 707.669 184.36 707.548 183.931 707.548Z" fill="black"/>
<path d="M157.546 780.082C157.863 779.83 158.008 779.713 157.98 779.732C158.895 778.976 159.613 778.355 160.136 777.87C160.668 777.385 161.116 776.876 161.48 776.344C161.844 775.812 162.026 775.294 162.026 774.79C162.026 774.407 161.937 774.109 161.76 773.894C161.583 773.679 161.317 773.572 160.962 773.572C160.607 773.572 160.327 773.707 160.122 773.978C159.926 774.239 159.828 774.613 159.828 775.098H157.518C157.537 774.305 157.705 773.642 158.022 773.11C158.349 772.578 158.773 772.186 159.296 771.934C159.828 771.682 160.416 771.556 161.06 771.556C162.171 771.556 163.006 771.841 163.566 772.41C164.135 772.979 164.42 773.721 164.42 774.636C164.42 775.635 164.079 776.563 163.398 777.422C162.717 778.271 161.849 779.102 160.794 779.914H164.574V781.86H157.546V780.082ZM165.628 776.75C165.628 775.145 165.936 773.88 166.552 772.956C167.177 772.032 168.181 771.57 169.562 771.57C170.943 771.57 171.942 772.032 172.558 772.956C173.183 773.88 173.496 775.145 173.496 776.75C173.496 778.374 173.183 779.648 172.558 780.572C171.942 781.496 170.943 781.958 169.562 781.958C168.181 781.958 167.177 781.496 166.552 780.572C165.936 779.648 165.628 778.374 165.628 776.75ZM171.144 776.75C171.144 775.807 171.041 775.084 170.836 774.58C170.631 774.067 170.206 773.81 169.562 773.81C168.918 773.81 168.493 774.067 168.288 774.58C168.083 775.084 167.98 775.807 167.98 776.75C167.98 777.385 168.017 777.912 168.092 778.332C168.167 778.743 168.316 779.079 168.54 779.34C168.773 779.592 169.114 779.718 169.562 779.718C170.01 779.718 170.346 779.592 170.57 779.34C170.803 779.079 170.957 778.743 171.032 778.332C171.107 777.912 171.144 777.385 171.144 776.75ZM174.509 774.006V771.78H178.387V782H175.895V774.006H174.509ZM182.601 779.004C182.741 779.741 183.17 780.11 183.889 780.11C184.383 780.11 184.733 779.891 184.939 779.452C185.144 779.013 185.247 778.299 185.247 777.31C185.041 777.599 184.761 777.823 184.407 777.982C184.052 778.141 183.655 778.22 183.217 778.22C182.619 778.22 182.087 778.099 181.621 777.856C181.154 777.604 180.785 777.235 180.515 776.75C180.253 776.255 180.123 775.658 180.123 774.958C180.123 774.267 180.263 773.665 180.543 773.152C180.832 772.639 181.238 772.242 181.761 771.962C182.293 771.682 182.918 771.542 183.637 771.542C185.018 771.542 185.984 771.971 186.535 772.83C187.085 773.689 187.361 774.953 187.361 776.624C187.361 777.837 187.249 778.841 187.025 779.634C186.81 780.418 186.441 781.015 185.919 781.426C185.405 781.837 184.701 782.042 183.805 782.042C183.095 782.042 182.489 781.902 181.985 781.622C181.49 781.342 181.107 780.973 180.837 780.516C180.575 780.059 180.426 779.555 180.389 779.004H182.601ZM183.763 776.33C184.155 776.33 184.467 776.213 184.701 775.98C184.934 775.737 185.051 775.411 185.051 775C185.051 774.552 184.929 774.207 184.687 773.964C184.444 773.721 184.117 773.6 183.707 773.6C183.296 773.6 182.969 773.726 182.727 773.978C182.493 774.221 182.377 774.557 182.377 774.986C182.377 775.387 182.493 775.714 182.727 775.966C182.969 776.209 183.315 776.33 183.763 776.33Z" fill="black"/>
<path d="M157.546 853.082C157.863 852.83 158.008 852.713 157.98 852.732C158.895 851.976 159.613 851.355 160.136 850.87C160.668 850.385 161.116 849.876 161.48 849.344C161.844 848.812 162.026 848.294 162.026 847.79C162.026 847.407 161.937 847.109 161.76 846.894C161.583 846.679 161.317 846.572 160.962 846.572C160.607 846.572 160.327 846.707 160.122 846.978C159.926 847.239 159.828 847.613 159.828 848.098H157.518C157.537 847.305 157.705 846.642 158.022 846.11C158.349 845.578 158.773 845.186 159.296 844.934C159.828 844.682 160.416 844.556 161.06 844.556C162.171 844.556 163.006 844.841 163.566 845.41C164.135 845.979 164.42 846.721 164.42 847.636C164.42 848.635 164.079 849.563 163.398 850.422C162.717 851.271 161.849 852.102 160.794 852.914H164.574V854.86H157.546V853.082ZM165.628 849.75C165.628 848.145 165.936 846.88 166.552 845.956C167.177 845.032 168.181 844.57 169.562 844.57C170.943 844.57 171.942 845.032 172.558 845.956C173.183 846.88 173.496 848.145 173.496 849.75C173.496 851.374 173.183 852.648 172.558 853.572C171.942 854.496 170.943 854.958 169.562 854.958C168.181 854.958 167.177 854.496 166.552 853.572C165.936 852.648 165.628 851.374 165.628 849.75ZM171.144 849.75C171.144 848.807 171.041 848.084 170.836 847.58C170.631 847.067 170.206 846.81 169.562 846.81C168.918 846.81 168.493 847.067 168.288 847.58C168.083 848.084 167.98 848.807 167.98 849.75C167.98 850.385 168.017 850.912 168.092 851.332C168.167 851.743 168.316 852.079 168.54 852.34C168.773 852.592 169.114 852.718 169.562 852.718C170.01 852.718 170.346 852.592 170.57 852.34C170.803 852.079 170.957 851.743 171.032 851.332C171.107 850.912 171.144 850.385 171.144 849.75ZM174.677 853.082C174.994 852.83 175.139 852.713 175.111 852.732C176.026 851.976 176.744 851.355 177.267 850.87C177.799 850.385 178.247 849.876 178.611 849.344C178.975 848.812 179.157 848.294 179.157 847.79C179.157 847.407 179.068 847.109 178.891 846.894C178.714 846.679 178.448 846.572 178.093 846.572C177.738 846.572 177.458 846.707 177.253 846.978C177.057 847.239 176.959 847.613 176.959 848.098H174.649C174.668 847.305 174.836 846.642 175.153 846.11C175.48 845.578 175.904 845.186 176.427 844.934C176.959 844.682 177.547 844.556 178.191 844.556C179.302 844.556 180.137 844.841 180.697 845.41C181.266 845.979 181.551 846.721 181.551 847.636C181.551 848.635 181.21 849.563 180.529 850.422C179.848 851.271 178.98 852.102 177.925 852.914H181.705V854.86H174.677V853.082ZM182.759 849.75C182.759 848.145 183.067 846.88 183.683 845.956C184.308 845.032 185.312 844.57 186.693 844.57C188.074 844.57 189.073 845.032 189.689 845.956C190.314 846.88 190.627 848.145 190.627 849.75C190.627 851.374 190.314 852.648 189.689 853.572C189.073 854.496 188.074 854.958 186.693 854.958C185.312 854.958 184.308 854.496 183.683 853.572C183.067 852.648 182.759 851.374 182.759 849.75ZM188.275 849.75C188.275 848.807 188.172 848.084 187.967 847.58C187.762 847.067 187.337 846.81 186.693 846.81C186.049 846.81 185.624 847.067 185.419 847.58C185.214 848.084 185.111 848.807 185.111 849.75C185.111 850.385 185.148 850.912 185.223 851.332C185.298 851.743 185.447 852.079 185.671 852.34C185.904 852.592 186.245 852.718 186.693 852.718C187.141 852.718 187.477 852.592 187.701 852.34C187.934 852.079 188.088 851.743 188.163 851.332C188.238 850.912 188.275 850.385 188.275 849.75Z" fill="black"/>
<path d="M157.546 934.082C157.863 933.83 158.008 933.713 157.98 933.732C158.895 932.976 159.613 932.355 160.136 931.87C160.668 931.385 161.116 930.876 161.48 930.344C161.844 929.812 162.026 929.294 162.026 928.79C162.026 928.407 161.937 928.109 161.76 927.894C161.583 927.679 161.317 927.572 160.962 927.572C160.607 927.572 160.327 927.707 160.122 927.978C159.926 928.239 159.828 928.613 159.828 929.098H157.518C157.537 928.305 157.705 927.642 158.022 927.11C158.349 926.578 158.773 926.186 159.296 925.934C159.828 925.682 160.416 925.556 161.06 925.556C162.171 925.556 163.006 925.841 163.566 926.41C164.135 926.979 164.42 927.721 164.42 928.636C164.42 929.635 164.079 930.563 163.398 931.422C162.717 932.271 161.849 933.102 160.794 933.914H164.574V935.86H157.546V934.082ZM165.628 930.75C165.628 929.145 165.936 927.88 166.552 926.956C167.177 926.032 168.181 925.57 169.562 925.57C170.943 925.57 171.942 926.032 172.558 926.956C173.183 927.88 173.496 929.145 173.496 930.75C173.496 932.374 173.183 933.648 172.558 934.572C171.942 935.496 170.943 935.958 169.562 935.958C168.181 935.958 167.177 935.496 166.552 934.572C165.936 933.648 165.628 932.374 165.628 930.75ZM171.144 930.75C171.144 929.807 171.041 929.084 170.836 928.58C170.631 928.067 170.206 927.81 169.562 927.81C168.918 927.81 168.493 928.067 168.288 928.58C168.083 929.084 167.98 929.807 167.98 930.75C167.98 931.385 168.017 931.912 168.092 932.332C168.167 932.743 168.316 933.079 168.54 933.34C168.773 933.592 169.114 933.718 169.562 933.718C170.01 933.718 170.346 933.592 170.57 933.34C170.803 933.079 170.957 932.743 171.032 932.332C171.107 931.912 171.144 931.385 171.144 930.75ZM174.677 934.082C174.994 933.83 175.139 933.713 175.111 933.732C176.026 932.976 176.744 932.355 177.267 931.87C177.799 931.385 178.247 930.876 178.611 930.344C178.975 929.812 179.157 929.294 179.157 928.79C179.157 928.407 179.068 928.109 178.891 927.894C178.714 927.679 178.448 927.572 178.093 927.572C177.738 927.572 177.458 927.707 177.253 927.978C177.057 928.239 176.959 928.613 176.959 929.098H174.649C174.668 928.305 174.836 927.642 175.153 927.11C175.48 926.578 175.904 926.186 176.427 925.934C176.959 925.682 177.547 925.556 178.191 925.556C179.302 925.556 180.137 925.841 180.697 926.41C181.266 926.979 181.551 927.721 181.551 928.636C181.551 929.635 181.21 930.563 180.529 931.422C179.848 932.271 178.98 933.102 177.925 933.914H181.705V935.86H174.677V934.082ZM182.507 928.006V925.78H186.385V936H183.893V928.006H182.507Z" fill="black"/>
</svg>
